<svg id="Calque_1" data-name="Calque 1" xmlns="http://www.w3.org/2000/svg" viewBox="0 0 3632.07 606.85"><path d="M3818.46,2170.72c-53.31,33.09-110.57,35.88-169.07,19.24-80.26-22.83-124.72-86.47-120.88-169.55,3.48-75.49,58.62-136.45,137.61-151,53-9.76,104.45-6,152.34,21.6v105.34c-20.9-26.35-48.3-41-81.39-45.85-43.49-6.36-86.65,21-96.33,61.28-10.07,42,10.87,83.87,50.59,96.13,41,12.63,78.68,4.22,111.22-24.49,5.37-4.74,10.61-9.62,15.91-14.43Z" transform="translate(-186.4 -1694.89)"/><path d="M3433.44,1694.89c37,16.16,49.13,31.94,47.68,61.81-1.32,27.12-22,48.26-49.87,51.06-36.79,3.71-63.14-10.84-70.85-39.11-8-29.36,4.93-56.32,32.83-68.49,3.76-1.65,7.44-3.51,11.15-5.27Z" transform="translate(-186.4 -1694.89)"/><path d="M454.71,2105.82l58.38-73.54,125,158.8c-39.55,0-75,.48-110.43-.55-5.06-.14-10.74-7-14.71-11.84-19-23.41-37.46-47.21-57.34-72.43-4.68,5.13-8.4,8.75-11.58,12.79C399.4,2175.6,354.67,2232,310.56,2289c-7,9.07-14.14,13-25.69,12.76-31.3-.73-62.63-.25-98.47-.25l211.22-268.95L272.33,1872.94c20.17,0,36.93,2.25,52.87-.42,46.66-7.84,79.85,8.32,102.14,50.06,6.67,12.48,17.54,22.71,28.16,36.08,20.64-26.16,40-50.62,59.27-75.14,28.07-35.67,56.35-71.17,83.94-107.2,7.66-10,15.8-14.92,28.86-14.54,30.63.89,61.3.29,96.8.29L513.18,2030.83l-57.66-72.61c-18.58,23.53-36.36,45.46-53.21,68.08-2.17,2.92-1.24,10.77,1.25,14.1C419.44,2061.67,436.16,2082.31,454.71,2105.82Z" transform="translate(-186.4 -1694.89)"/><path d="M2054,2103.69c-17,32.89-39.4,58.26-70.74,72.84-68.56,31.9-138.17,32.55-205.85-2.48-40.36-20.89-66.31-55.81-72.51-100.71-4.13-30-4.51-61.94,1.32-91.46,10.38-52.55,45.45-87.22,95.82-104.58,49.35-17,99.86-17.6,149.72-2.14,62.27,19.31,98.77,70.84,100.76,139.8.36,12.54,0,25.09,0,39.4H1810.31c1.2,41,30.25,69,70.8,68.26,28.73-.55,54.67-8.65,73-33.57,2.79-3.81,11.22-6.26,16.18-5.22C1997.41,2089.52,2024.27,2096.49,2054,2103.69Zm-118.37-108.76c2.17-33.27-20.21-57.19-54.73-59.39-37.19-2.36-67,23.4-68.08,59.39Z" transform="translate(-186.4 -1694.89)"/><path d="M1077.9,2054.36H835.34c2.56,33.24,19.09,55.86,46.08,64.54,32.58,10.48,75.37-.19,94.11-25.83,7.61-10.41,14.61-11.76,25.55-8.87,23.93,6.32,48,12,72.07,17.9a52.3,52.3,0,0,1,5.28,2.21c-2.27,4.62-4,9.41-6.77,13.59-43.77,67.15-109.31,85.26-184.27,80.29a227.76,227.76,0,0,1-55-10.61c-72.94-23.8-112.86-89.06-106.55-171.85,6.6-86.74,63.37-143.31,152.84-149.28,27.44-1.83,56-.85,82.83,4.68,72.63,15,114.16,68.78,116.3,145.68C1078.19,2028.79,1077.9,2040.78,1077.9,2054.36Zm-116-59.43c-.29-35.35-22.92-58.69-57-59.48-37-.87-64,22.79-67.18,59.48Z" transform="translate(-186.4 -1694.89)"/><path d="M2964.69,2014c0-8.44.5-17.45-.1-26.4-1.66-25-14-38.53-39.17-42.22-42.34-6.2-81.34,5.53-121,24.54-11.77-23.22-23.37-46.14-35.71-70.5,55.9-26.86,113.35-41.8,175.24-35.48,35.58,3.63,70.48,11.67,95,39.19,12.54,14.07,25,34.1,25.65,51.85,2.76,78.42,1.19,157,1.19,236.5H2966V2152.3c-8.2,7.83-13.22,13.12-18.75,17.81-41.76,35.51-116.4,39-161.46,7.75-33.27-23.1-47.8-66-36.65-108.12,10.53-39.84,42.38-65.29,89.72-69.38,21-1.81,42.41-2.17,63.28.12S2943.16,2009.19,2964.69,2014Zm-.73,55c-25.39-12.43-51.36-14.81-78.05-11.39-21.5,2.76-32.51,13.51-33.57,31.36-1.1,18.54,9.43,32.53,29,38.53C2919.45,2139.25,2955.88,2114.37,2964,2069.05Z" transform="translate(-186.4 -1694.89)"/><path d="M2379.63,1873.17H2484.9v36.43c2.39.11,4.09.61,4.42.14,31.85-44.45,76.82-51.4,126.1-42.39,46.71,8.55,77.29,41.13,79.4,92.83,3.12,76.58.81,153.38.81,231.21H2586.51v-19.12q0-84.39,0-168.79c0-4.84.23-9.7-.17-14.51-2.88-34.69-18.21-50.85-47.25-50-31.92.91-53.22,21.77-53.51,54.31-.52,59.28-.15,118.57-.16,177.86v20.44H2379.63Z" transform="translate(-186.4 -1694.89)"/><path d="M1444.68,2191.9c-39.32,0-73.77.49-108.18-.47-5.84-.17-13-5.38-17-10.3-19.59-23.69-38.35-48.08-59.12-74.41-17.65,22.38-35.45,42.65-50.5,64.79-11.22,16.51-24.39,21.93-43.81,20.82-28.3-1.61-56.75-.41-89.92-.41l125.35-160-125.06-159.54c40.29,0,76.27-.31,112.23.41,4.14.09,9,5.27,12.12,9.18,19.69,24.38,39,49.08,59.57,75.11,18.69-23.67,37.37-45.81,54.21-69.26,8.8-12.25,18.52-16.46,33.31-15.92,30.7,1.11,61.48.33,96.61.33-43,54.82-83.79,106.77-125.28,159.66Z" transform="translate(-186.4 -1694.89)"/><path d="M1515.91,1760.85h103v110.48h55.18V1959H1619.9v232.27h-103V1960.07h-55V1872.3h54Z" transform="translate(-186.4 -1694.89)"/><path d="M3264.43,1761v110.57h55.14v87.62h-54.44v232.24H3163.61V1959.78h-56.17v-87h54.71V1761Z" transform="translate(-186.4 -1694.89)"/><path d="M2209.36,2191.94H2105.94V1873.56h103v35.89c11.54-10.94,19.8-20.36,29.59-27.77,30.2-22.88,72.16-23.06,99.61-1.53,6.71,5.26,11,9.82,5.79,19.43-14.33,26.55-27.62,53.66-41.63,81.15-5.1-3.38-9.49-6.5-14.08-9.31-26.2-16.09-58.44-7.55-69.77,20.95-6.06,15.26-8.31,32.83-8.67,49.43C2208.66,2091.29,2209.36,2140.81,2209.36,2191.94Z" transform="translate(-186.4 -1694.89)"/><path d="M3469.15,2191.87h-100V1873.52h100Z" transform="translate(-186.4 -1694.89)"/><path d="M1935.62,1994.93H1812.81" transform="translate(-186.4 -1694.89)"/><path d="M961.92,1994.93H837.69" transform="translate(-186.4 -1694.89)"/></svg>